<svg width="18" height="18" viewBox="0 0 18 18" fill="none" xmlns="http://www.w3.org/2000/svg">
<path d="M15.4178 0.5H2.19553C1.15664 0.5 0.306641 1.35 0.306641 2.38889V15.6111C0.306641 16.6509 1.15664 17.5 2.19553 17.5H8.80664V10.8889H6.91775V8.55139H8.80664V6.61528C8.80664 4.5715 9.95131 3.13594 12.3634 3.13594L14.0663 3.13783V5.59811H12.9358C11.997 5.59811 11.64 6.30267 11.64 6.95622V8.55233H14.0653L13.5289 10.8889H11.64V17.5H15.4178C16.4566 17.5 17.3066 16.6509 17.3066 15.6111V2.38889C17.3066 1.35 16.4566 0.5 15.4178 0.5Z" fill="#5B5B5B"/>
</svg>
