<svg width="18" height="18" viewBox="0 0 18 18" fill="none" xmlns="http://www.w3.org/2000/svg">
<path d="M17.4178 7.45581H9.32226V10.7354H13.9855C13.551 12.825 11.7335 14.0221 9.32226 14.0221C7.96067 14.0221 6.65484 13.493 5.69204 12.5511C4.72925 11.6093 4.18835 10.3319 4.18835 8.99998C4.18835 7.66804 4.72925 6.39065 5.69204 5.44883C6.65484 4.50701 7.96067 3.97789 9.32226 3.97789C10.489 3.9795 11.6194 4.37479 12.5228 5.09706L15.0499 2.62498C13.9949 1.71476 12.7297 1.06874 11.363 0.742429C9.99637 0.416115 8.56917 0.419264 7.20405 0.751606C5.83892 1.08395 4.5767 1.73554 3.52583 2.6504C2.47496 3.56527 1.66687 4.71604 1.171 6.00383C0.67513 7.29163 0.506304 8.67794 0.679029 10.0436C0.851755 11.4094 1.36087 12.7136 2.16262 13.8444C2.96437 14.9751 4.03479 15.8986 5.2819 16.5353C6.529 17.1721 7.9155 17.5031 9.32226 17.5C13.6669 17.5 17.6133 14.4116 17.6133 8.99998C17.609 8.47962 17.5434 7.96148 17.4178 7.45581V7.45581Z" fill="#5B5B5B"/>
</svg>
