<svg width="24" height="24" viewBox="0 0 20 20" fill="none" xmlns="http://www.w3.org/2000/svg">
<path d="M18.9471 6.30545C18.937 5.54807 18.7952 4.79822 18.5281 4.08945C18.2964 3.4916 17.9426 2.94864 17.4892 2.49528C17.0359 2.04191 16.4929 1.6881 15.8951 1.45645C15.1954 1.1938 14.4562 1.05179 13.7091 1.03645C12.7471 0.993445 12.4421 0.981445 10.0001 0.981445C7.55807 0.981445 7.24507 0.981445 6.29007 1.03645C5.54323 1.0519 4.80442 1.19391 4.10507 1.45645C3.50713 1.68793 2.96409 2.04169 2.5107 2.49508C2.05732 2.94847 1.70356 3.4915 1.47207 4.08945C1.2089 4.78858 1.06719 5.52756 1.05307 6.27445C1.01007 7.23745 0.99707 7.54245 0.99707 9.98445C0.99707 12.4264 0.99707 12.7384 1.05307 13.6944C1.06807 14.4424 1.20907 15.1804 1.47207 15.8814C1.70395 16.4792 2.05797 17.022 2.51151 17.4752C2.96505 17.9284 3.50813 18.282 4.10607 18.5134C4.8035 18.7866 5.54244 18.9388 6.29107 18.9634C7.25407 19.0064 7.55907 19.0194 10.0011 19.0194C12.4431 19.0194 12.7561 19.0194 13.7111 18.9634C14.4582 18.9487 15.1974 18.807 15.8971 18.5444C16.4948 18.3125 17.0376 17.9586 17.4909 17.5053C17.9442 17.052 18.2982 16.5091 18.5301 15.9114C18.7931 15.2114 18.9341 14.4734 18.9491 13.7244C18.9921 12.7624 19.0051 12.4574 19.0051 10.0144C19.0031 7.57245 19.0031 7.26245 18.9471 6.30545ZM9.99407 14.6024C7.44007 14.6024 5.37107 12.5334 5.37107 9.97945C5.37107 7.42545 7.44007 5.35645 9.99407 5.35645C11.2202 5.35645 12.396 5.84351 13.263 6.71049C14.13 7.57747 14.6171 8.75335 14.6171 9.97945C14.6171 11.2055 14.13 12.3814 13.263 13.2484C12.396 14.1154 11.2202 14.6024 9.99407 14.6024ZM14.8011 6.26344C14.6595 6.26358 14.5192 6.23578 14.3884 6.18166C14.2575 6.12753 14.1386 6.04813 14.0385 5.948C13.9384 5.84787 13.859 5.72898 13.8049 5.59813C13.7507 5.46729 13.7229 5.32705 13.7231 5.18545C13.7231 5.04395 13.7509 4.90383 13.8051 4.7731C13.8592 4.64238 13.9386 4.52359 14.0387 4.42354C14.1387 4.32348 14.2575 4.24411 14.3882 4.18997C14.519 4.13582 14.6591 4.10795 14.8006 4.10795C14.9421 4.10795 15.0822 4.13582 15.2129 4.18997C15.3436 4.24411 15.4624 4.32348 15.5625 4.42354C15.6625 4.52359 15.7419 4.64238 15.7961 4.7731C15.8502 4.90383 15.8781 5.04395 15.8781 5.18545C15.8781 5.78145 15.3961 6.26344 14.8011 6.26344Z" fill="#5B5B5B"/>
<path d="M9.99407 12.9824C11.6526 12.9824 12.9971 11.638 12.9971 9.97945C12.9971 8.32093 11.6526 6.97645 9.99407 6.97645C8.33556 6.97645 6.99107 8.32093 6.99107 9.97945C6.99107 11.638 8.33556 12.9824 9.99407 12.9824Z" fill="#5B5B5B"/>
</svg>

