<svg width="18" height="16" viewBox="0 0 18 16" fill="none" xmlns="http://www.w3.org/2000/svg">
<path d="M15.8091 3.01677C16.5771 2.55767 17.1517 1.83476 17.4257 0.98302C16.7041 1.41121 15.9145 1.71282 15.0912 1.87482C14.536 1.28744 13.8029 0.898996 13.0051 0.769366C12.2073 0.639736 11.3889 0.776117 10.6763 1.15749C9.9636 1.53886 9.39615 2.14404 9.06138 2.87976C8.72662 3.61547 8.64313 4.44087 8.82379 5.22872C7.36219 5.15534 5.93236 4.77543 4.62711 4.11365C3.32185 3.45187 2.17034 2.52302 1.24732 1.38737C0.777918 2.19702 0.634281 3.15498 0.845582 4.0667C1.05688 4.97841 1.60728 5.77552 2.38499 6.29614C1.80135 6.27738 1.23064 6.11935 0.720467 5.83525V5.88151C0.72063 6.73045 1.01442 7.55321 1.55201 8.21025C2.0896 8.86729 2.83791 9.31816 3.67001 9.48641C3.12864 9.6337 2.56079 9.65538 2.00977 9.5498C2.24512 10.28 2.70257 10.9184 3.31826 11.3761C3.93396 11.8338 4.67718 12.0878 5.44419 12.1027C4.1419 13.1248 2.53361 13.6791 0.878095 13.6764C0.584255 13.6764 0.291271 13.6593 0 13.6259C1.68116 14.7061 3.63778 15.2795 5.63609 15.2776C7.01243 15.287 8.37693 15.0229 9.65033 14.5005C10.9237 13.9781 12.0806 13.2079 13.0538 12.2347C14.027 11.2614 14.7971 10.1044 15.3194 8.83096C15.8417 7.55752 16.1057 6.193 16.0961 4.81666C16.0961 4.65731 16.0927 4.49883 16.085 4.3412C16.805 3.82087 17.4264 3.17626 17.92 2.43766C17.2492 2.73497 16.5377 2.93017 15.8091 3.01677V3.01677Z" fill="#5B5B5B"/>
</svg>
