<svg width="18" height="13" viewBox="0 0 18 13" fill="none" xmlns="http://www.w3.org/2000/svg">
<path fill-rule="evenodd" clip-rule="evenodd" d="M16 0.707108L15.2929 0L13.5861 1.70675C12.1626 0.858395 10.6167 0.39336 9.00003 0.39336C5.56094 0.39336 2.44217 2.49768 0.1409 5.91566C-0.0469666 6.19569 -0.0469666 6.58691 0.1409 6.86694C1.32852 8.633 2.7338 10.0481 4.2886 11.0041L2.99991 12.2929L3.70706 13L16 0.707108ZM6.13431 9.15844L7.43704 7.85579C7.11417 7.42536 6.9313 6.85947 6.96756 6.24511C7.03006 5.10853 7.85489 4.1902 8.87112 4.11608C9.50284 4.07166 10.0782 4.34885 10.4774 4.81538L11.7763 3.51652C11.0332 2.62013 9.94778 2.08422 8.75333 2.16824C6.86807 2.30002 5.34 4.00901 5.2222 6.11745C5.15677 7.28212 5.51212 8.35284 6.13431 9.15844ZM9.00003 12.3934C7.93985 12.3934 6.91019 12.1934 5.92545 11.8165L7.48465 10.2734C8.01907 10.5351 8.61783 10.6627 9.24673 10.6185C11.1283 10.4826 12.6564 8.77359 12.7779 6.66927C12.807 6.15014 12.7525 5.64968 12.6281 5.18304L15.0706 2.7658C16.0911 3.62072 17.0284 4.68438 17.8592 5.91978C18.047 6.19981 18.047 6.59103 17.8592 6.87106C15.5579 10.289 12.4391 12.3934 9.00003 12.3934ZM9.1326 8.66652L9.1066 8.66817L11.0097 6.7848C10.8479 7.80841 10.0708 8.60165 9.1326 8.66652Z" fill="#292929"/>
</svg>
