<svg width="18" height="18" viewBox="0 0 18 18" fill="none" xmlns="http://www.w3.org/2000/svg">
<path d="M-0.0078125 9.05407C-0.00730538 11.2105 0.757923 13.296 2.15033 14.9358C3.54274 16.5755 5.47102 17.662 7.58858 18V11.6711H5.30435V9.05407H7.59128V7.06186C7.54078 6.59558 7.59298 6.12384 7.74418 5.68014C7.89537 5.23644 8.14185 4.83166 8.46611 4.49456C8.79037 4.15746 9.18445 3.8963 9.62036 3.72964C10.0563 3.56297 10.5233 3.49488 10.9884 3.53021C11.6636 3.54108 12.3389 3.60175 13.0052 3.71132V5.93807H11.8671C11.6737 5.91259 11.477 5.93115 11.2917 5.99239C11.1064 6.05362 10.9371 6.15596 10.7964 6.29184C10.6557 6.42772 10.5471 6.59367 10.4787 6.77742C10.4103 6.96117 10.3839 7.15803 10.4013 7.35345V9.05407H12.8962L12.4974 11.672H10.4013V18C12.1009 17.7299 13.6879 16.9756 14.9744 15.8265C16.261 14.6774 17.1932 13.1815 17.6608 11.5161C18.1283 9.85066 18.1116 8.08535 17.6125 6.42918C17.1135 4.77301 16.1531 3.29534 14.845 2.17111C13.5369 1.04688 11.9358 0.32318 10.2315 0.0856856C8.52712 -0.151809 6.79078 0.106852 5.22804 0.831043C3.66531 1.55523 2.34162 2.71463 1.41369 4.17196C0.485763 5.62929 -0.00753936 7.32352 -0.0078125 9.05407Z" fill="#4E7EFF"/>
</svg>
