<svg width="38" height="40" viewBox="0 0 38 40" fill="none" xmlns="http://www.w3.org/2000/svg">
<path d="M34.1169 16.8174H32.875V16.75H19V23.25H27.7128C26.4417 27.0338 23.0261 29.75 19 29.75C13.8917 29.75 9.75004 25.3844 9.75004 20C9.75004 14.6156 13.8917 10.25 19 10.25C21.358 10.25 23.5033 11.1876 25.1366 12.7192L29.4972 8.12288C26.7438 5.41806 23.0608 3.75 19 3.75C10.4862 3.75 3.58337 11.0259 3.58337 20C3.58337 28.9741 10.4862 36.25 19 36.25C27.5139 36.25 34.4167 28.9741 34.4167 20C34.4167 18.9104 34.3103 17.8469 34.1169 16.8174Z" fill="#FFC107"/>
<path d="M5.36084 12.4364L10.426 16.3519C11.7965 12.7752 15.1157 10.25 19 10.25C21.3579 10.25 23.5032 11.1876 25.1366 12.7192L29.4972 8.12287C26.7438 5.41806 23.0607 3.75 19 3.75C13.0784 3.75 7.94313 7.27381 5.36084 12.4364Z" fill="#FF3D00"/>
<path d="M19 36.25C22.9821 36.25 26.6004 34.6436 29.3361 32.0314L24.5646 27.7756C22.9648 29.058 21.0099 29.7516 19 29.7499C14.9901 29.7499 11.5853 27.0549 10.3026 23.2938L5.27527 27.3766C7.82673 32.6392 13.0083 36.25 19 36.25Z" fill="#4CAF50"/>
<path d="M34.1168 16.8174H32.875V16.75H19V23.25H27.7127C27.1047 25.0508 26.0095 26.6245 24.5623 27.7764L24.5646 27.7748L29.3361 32.0307C28.9985 32.3541 34.4167 28.125 34.4167 20C34.4167 18.9104 34.3103 17.8469 34.1168 16.8174Z" fill="#1976D2"/>
</svg>
