<svg width="18" height="18" viewBox="0 0 18 18" fill="none" xmlns="http://www.w3.org/2000/svg">
<path d="M9 6C8.20435 6 7.44129 6.31607 6.87868 6.87868C6.31607 7.44129 6 8.20435 6 9C6 9.79565 6.31607 10.5587 6.87868 11.1213C7.44129 11.6839 8.20435 12 9 12C9.79565 12 10.5587 11.6839 11.1213 11.1213C11.6839 10.5587 12 9.79565 12 9C12 8.20435 11.6839 7.44129 11.1213 6.87868C10.5587 6.31607 9.79565 6 9 6Z" fill="#4E7EFF"/>
<path fill-rule="evenodd" clip-rule="evenodd" d="M5.4 0C3.96783 0 2.59432 0.568927 1.58162 1.58162C0.568927 2.59432 0 3.96783 0 5.4V12.6C0 14.0322 0.568927 15.4057 1.58162 16.4184C2.59432 17.4311 3.96783 18 5.4 18H12.6C14.0322 18 15.4057 17.4311 16.4184 16.4184C17.4311 15.4057 18 14.0322 18 12.6V5.4C18 3.96783 17.4311 2.59432 16.4184 1.58162C15.4057 0.568927 14.0322 0 12.6 0H5.4ZM4.8 9C4.8 7.88609 5.2425 6.8178 6.03015 6.03015C6.8178 5.2425 7.88609 4.8 9 4.8C10.1139 4.8 11.1822 5.2425 11.9698 6.03015C12.7575 6.8178 13.2 7.88609 13.2 9C13.2 10.1139 12.7575 11.1822 11.9698 11.9698C11.1822 12.7575 10.1139 13.2 9 13.2C7.88609 13.2 6.8178 12.7575 6.03015 11.9698C5.2425 11.1822 4.8 10.1139 4.8 9ZM13.2 4.8H14.4V3.6H13.2V4.8Z" fill="#4E7EFF"/>
</svg>
